<mxfile host="65bd71144e">
    <diagram name="Page-1" id="74e2e168-ea6b-b213-b513-2b3c1d86103e">
        <mxGraphModel dx="1042" dy="561" grid="1" gridSize="10" guides="1" tooltips="1" connect="1" arrows="1" fold="1" page="1" pageScale="1" pageWidth="1100" pageHeight="850" background="#ffffff" math="0" shadow="0">
            <root>
                <mxCell id="0"/>
                <mxCell id="1" parent="0"/>
                <mxCell id="VZpxX5HajXSAYCie8GUY-9" value="http 302" style="text;html=1;align=center;verticalAlign=middle;resizable=0;points=[];autosize=1;labelBackgroundColor=none;" parent="1" vertex="1">
                    <mxGeometry x="520" y="170" width="60" height="20" as="geometry"/>
                </mxCell>
                <mxCell id="77e6c97f196da883-1" value="Pool" style="swimlane;html=1;childLayout=stackLayout;startSize=20;rounded=0;shadow=0;labelBackgroundColor=none;strokeWidth=1;fontFamily=Verdana;fontSize=8;align=center;" parent="1" vertex="1">
                    <mxGeometry x="120" y="20" width="1010" height="740" as="geometry"/>
                </mxCell>
                <mxCell id="77e6c97f196da883-26" style="edgeStyle=orthogonalEdgeStyle;rounded=1;html=1;labelBackgroundColor=none;startArrow=none;startFill=0;startSize=5;endArrow=classicThin;endFill=1;endSize=5;jettySize=auto;orthogonalLoop=1;strokeWidth=1;fontFamily=Verdana;fontSize=8;" parent="77e6c97f196da883-1" source="77e6c97f196da883-8" target="77e6c97f196da883-11" edge="1">
                    <mxGeometry relative="1" as="geometry"/>
                </mxCell>
                <mxCell id="77e6c97f196da883-2" value="Xadmin" style="swimlane;html=1;startSize=20;labelBackgroundColor=none;" parent="77e6c97f196da883-1" vertex="1">
                    <mxGeometry y="20" width="160" height="720" as="geometry"/>
                </mxCell>
                <mxCell id="77e6c97f196da883-9" value="&lt;meta charset=&quot;utf-8&quot;&gt;&lt;span style=&quot;font-family: verdana; font-size: 8px; font-style: normal; font-weight: 400; letter-spacing: normal; text-align: center; text-indent: 0px; text-transform: none; word-spacing: 0px; display: inline; float: none;&quot;&gt;https://xadmin.airdb.com&lt;/span&gt;&lt;br style=&quot;font-family: verdana; font-size: 8px; font-style: normal; font-weight: 400; letter-spacing: normal; text-align: center; text-indent: 0px; text-transform: none; word-spacing: 0px;&quot;&gt;" style="rounded=1;whiteSpace=wrap;html=1;shadow=0;labelBackgroundColor=none;strokeWidth=1;fontFamily=Verdana;fontSize=8;align=center;" parent="77e6c97f196da883-2" vertex="1">
                    <mxGeometry x="20" y="260" width="110" height="60" as="geometry"/>
                </mxCell>
                <mxCell id="77e6c97f196da883-8" value="https://xadmin.airdb.com&lt;br&gt;/login" style="rounded=1;whiteSpace=wrap;html=1;shadow=0;labelBackgroundColor=none;strokeWidth=1;fontFamily=Verdana;fontSize=8;align=center;" parent="77e6c97f196da883-2" vertex="1">
                    <mxGeometry x="20" y="62.5" width="120" height="65" as="geometry"/>
                </mxCell>
                <mxCell id="77e6c97f196da883-3" value="Lane 2" style="swimlane;html=1;startSize=20;labelBackgroundColor=none;" parent="77e6c97f196da883-1" vertex="1">
                    <mxGeometry x="160" y="20" width="160" height="720" as="geometry"/>
                </mxCell>
                <mxCell id="77e6c97f196da883-4" value="Oauth" style="swimlane;html=1;startSize=20;labelBackgroundColor=none;" parent="77e6c97f196da883-1" vertex="1">
                    <mxGeometry x="320" y="20" width="160" height="720" as="geometry"/>
                </mxCell>
                <mxCell id="77e6c97f196da883-15" value="https://bbhj.airdb.com&lt;br&gt;/release/oauth2/github/callback" style="rounded=1;whiteSpace=wrap;html=1;shadow=0;labelBackgroundColor=none;strokeWidth=1;fontFamily=Verdana;fontSize=8;align=center;" parent="77e6c97f196da883-4" vertex="1">
                    <mxGeometry x="10" y="260" width="140" height="60" as="geometry"/>
                </mxCell>
                <mxCell id="77e6c97f196da883-11" value="https://bbhj.airdb.com&lt;br&gt;/release/oauth2/github" style="rounded=1;whiteSpace=wrap;html=1;shadow=0;labelBackgroundColor=none;strokeWidth=1;fontFamily=Verdana;fontSize=8;align=center;" parent="77e6c97f196da883-4" vertex="1">
                    <mxGeometry x="20" y="62.5" width="120" height="65" as="geometry"/>
                </mxCell>
                <mxCell id="77e6c97f196da883-5" value="Github" style="swimlane;html=1;startSize=20;labelBackgroundColor=none;" parent="77e6c97f196da883-1" vertex="1">
                    <mxGeometry x="480" y="20" width="460" height="720" as="geometry"/>
                </mxCell>
                <mxCell id="77e6c97f196da883-12" value="https://github.com&lt;br&gt;/login/oauth/authorize" style="rounded=1;whiteSpace=wrap;html=1;shadow=0;labelBackgroundColor=none;strokeWidth=1;fontFamily=Verdana;fontSize=8;align=center;" parent="77e6c97f196da883-5" vertex="1">
                    <mxGeometry x="50" y="170" width="150" height="60" as="geometry"/>
                </mxCell>
                <mxCell id="VZpxX5HajXSAYCie8GUY-5" style="edgeStyle=orthogonalEdgeStyle;rounded=0;orthogonalLoop=1;jettySize=auto;html=1;entryX=1;entryY=0.5;entryDx=0;entryDy=0;labelBackgroundColor=none;" parent="77e6c97f196da883-1" source="77e6c97f196da883-15" target="77e6c97f196da883-9" edge="1">
                    <mxGeometry relative="1" as="geometry"/>
                </mxCell>
                <mxCell id="VZpxX5HajXSAYCie8GUY-13" value="http 302" style="edgeLabel;html=1;align=center;verticalAlign=middle;resizable=0;points=[];labelBackgroundColor=none;" parent="VZpxX5HajXSAYCie8GUY-5" vertex="1" connectable="0">
                    <mxGeometry x="0.19" y="-1" relative="1" as="geometry">
                        <mxPoint as="offset"/>
                    </mxGeometry>
                </mxCell>
                <mxCell id="VZpxX5HajXSAYCie8GUY-4" value="http 302" style="edgeStyle=orthogonalEdgeStyle;rounded=0;orthogonalLoop=1;jettySize=auto;html=1;entryX=0.5;entryY=0;entryDx=0;entryDy=0;labelBackgroundColor=none;" parent="77e6c97f196da883-1" source="77e6c97f196da883-12" target="77e6c97f196da883-15" edge="1">
                    <mxGeometry relative="1" as="geometry"/>
                </mxCell>
                <mxCell id="VZpxX5HajXSAYCie8GUY-8" style="edgeStyle=orthogonalEdgeStyle;rounded=0;orthogonalLoop=1;jettySize=auto;html=1;exitX=1;exitY=0.5;exitDx=0;exitDy=0;entryX=0.5;entryY=0;entryDx=0;entryDy=0;labelBackgroundColor=none;" parent="77e6c97f196da883-1" source="77e6c97f196da883-11" target="77e6c97f196da883-12" edge="1">
                    <mxGeometry relative="1" as="geometry"/>
                </mxCell>
            </root>
        </mxGraphModel>
    </diagram>
</mxfile>